<svg version="1.1" xmlns="http://www.w3.org/2000/svg" viewBox="0 0 2283.4587007551304 1031.1998291015625" width="2283.4587007551304" height="1031.1998291015625">
  <!-- svg-source:excalidraw -->
  
  <defs>
    <style class="style-fonts">
      @font-face {
        font-family: "Virgil";
        src: url("https://excalidraw.com/Virgil.woff2");
      }
      @font-face {
        font-family: "Cascadia";
        src: url("https://excalidraw.com/Cascadia.woff2");
      }
    </style>
  </defs>
  <rect x="0" y="0" width="2283.4587007551304" height="1031.1998291015625" fill="#ffffff"></rect><g stroke-linecap="round" transform="translate(84.15840778638034 97.99984741210938) rotate(0 173.60009765625 461.59999084472656)"><path d="M7.86 8.16 C7.86 8.16, 7.86 8.16, 7.86 8.16 M7.86 8.16 C7.86 8.16, 7.86 8.16, 7.86 8.16 M2.75 26.24 C7.65 20.6, 12.55 14.96, 25.05 0.58 M2.75 26.24 C10.71 17.07, 18.68 7.91, 25.05 0.58 M4.85 36.01 C11.45 28.41, 18.06 20.82, 34.37 2.05 M4.85 36.01 C14.52 24.89, 24.19 13.77, 34.37 2.05 M4.98 48.06 C15.78 35.63, 26.59 23.2, 45 2.02 M4.98 48.06 C17.23 33.96, 29.48 19.87, 45 2.02 M4.46 60.85 C15.88 47.71, 27.31 34.56, 55.63 1.98 M4.46 60.85 C14.78 48.98, 25.09 37.11, 55.63 1.98 M4.59 72.89 C17.54 58, 30.48 43.11, 66.26 1.95 M4.59 72.89 C23.51 51.12, 42.43 29.36, 66.26 1.95 M4.72 84.93 C19.28 68.19, 33.84 51.44, 76.89 1.91 M4.72 84.93 C31.01 54.7, 57.29 24.46, 76.89 1.91 M4.86 96.97 C29.69 68.4, 54.53 39.83, 87.52 1.88 M4.86 96.97 C32.27 65.44, 59.69 33.9, 87.52 1.88 M4.99 109.01 C35.01 74.48, 65.03 39.94, 98.15 1.85 M4.99 109.01 C28.08 82.45, 51.18 55.88, 98.15 1.85 M4.47 121.81 C33.89 87.97, 63.31 54.12, 108.78 1.81 M4.47 121.81 C46.01 74.02, 87.56 26.22, 108.78 1.81 M4.6 133.85 C47.97 83.96, 91.34 34.07, 119.41 1.78 M4.6 133.85 C48.28 83.6, 91.96 33.35, 119.41 1.78 M4.73 145.89 C39.18 106.27, 73.62 66.64, 130.04 1.74 M4.73 145.89 C38.54 107, 72.34 68.11, 130.04 1.74 M4.87 157.93 C44.35 112.51, 83.83 67.09, 140.67 1.71 M4.87 157.93 C43.59 113.39, 82.31 68.85, 140.67 1.71 M5 169.97 C45.61 123.25, 86.23 76.53, 150.65 2.43 M5 169.97 C56.62 110.59, 108.24 51.21, 150.65 2.43 M4.48 182.77 C37.94 144.27, 71.4 105.78, 161.28 2.39 M4.48 182.77 C64.12 114.16, 123.75 45.56, 161.28 2.39 M4.61 194.81 C50.37 142.17, 96.13 89.52, 171.91 2.36 M4.61 194.81 C39.05 155.19, 73.49 115.57, 171.91 2.36 M4.74 206.85 C45.23 160.28, 85.72 113.7, 182.54 2.32 M4.74 206.85 C54.52 149.59, 104.29 92.34, 182.54 2.32 M4.88 218.89 C64.78 149.98, 124.69 81.06, 193.17 2.29 M4.88 218.89 C46.88 170.57, 88.88 122.25, 193.17 2.29 M5.01 230.93 C53.76 174.85, 102.51 118.78, 203.8 2.26 M5.01 230.93 C63.26 163.93, 121.5 96.92, 203.8 2.26 M4.49 243.73 C57.33 182.94, 110.17 122.16, 214.43 2.22 M4.49 243.73 C78.03 159.13, 151.57 74.53, 214.43 2.22 M4.62 255.77 C72.35 177.86, 140.07 99.95, 225.06 2.19 M4.62 255.77 C76.03 173.62, 147.45 91.47, 225.06 2.19 M4.75 267.81 C95.45 163.47, 186.15 59.14, 235.69 2.15 M4.75 267.81 C91.84 167.63, 178.92 67.45, 235.69 2.15 M4.89 279.85 C73.62 200.78, 142.36 121.7, 246.32 2.12 M4.89 279.85 C94.83 176.39, 184.77 72.92, 246.32 2.12 M5.02 291.89 C65.39 222.45, 125.75 153, 256.95 2.08 M5.02 291.89 C65.08 222.8, 125.13 153.72, 256.95 2.08 M4.5 304.69 C104.02 190.2, 203.55 75.7, 267.58 2.05 M4.5 304.69 C66 233.94, 127.5 163.19, 267.58 2.05 M4.63 316.73 C105.95 200.18, 207.26 83.62, 278.21 2.01 M4.63 316.73 C90.63 217.8, 176.63 118.87, 278.21 2.01 M4.76 328.77 C66.8 257.4, 128.84 186.04, 288.84 1.98 M4.76 328.77 C117.83 198.7, 230.9 68.63, 288.84 1.98 M4.9 340.81 C105.81 224.72, 206.73 108.62, 299.47 1.94 M4.9 340.81 C102.25 228.81, 199.61 116.82, 299.47 1.94 M5.03 352.85 C116.37 224.77, 227.71 96.69, 310.1 1.91 M5.03 352.85 C112.1 229.68, 219.17 106.51, 310.1 1.91 M4.51 365.65 C128.5 223.01, 252.5 80.36, 319.41 3.39 M4.51 365.65 C85.65 272.3, 166.79 178.95, 319.41 3.39 M4.64 377.69 C72.25 299.91, 139.87 222.13, 330.04 3.35 M4.64 377.69 C93.67 275.27, 182.69 172.86, 330.04 3.35 M4.77 389.73 C118.16 259.29, 231.54 128.86, 337.39 7.09 M4.77 389.73 C75.29 308.61, 145.8 227.49, 337.39 7.09 M4.91 401.77 C94.86 298.29, 184.81 194.81, 342.78 13.09 M4.91 401.77 C120.51 268.78, 236.12 135.79, 342.78 13.09 M5.04 413.81 C101.18 303.21, 197.32 192.61, 347.5 19.85 M5.04 413.81 C126.59 273.98, 248.14 134.16, 347.5 19.85 M4.52 426.6 C103.82 312.37, 203.12 198.13, 347.63 31.89 M4.52 426.6 C82.86 336.49, 161.19 246.37, 347.63 31.89 M4.65 438.65 C103.88 324.49, 203.11 210.34, 347.11 44.69 M4.65 438.65 C139.31 283.73, 273.97 128.82, 347.11 44.69 M4.78 450.69 C126.74 310.39, 248.7 170.09, 347.25 56.73 M4.78 450.69 C141.41 293.51, 278.04 136.34, 347.25 56.73 M4.92 462.73 C115.9 335.05, 226.88 207.38, 347.38 68.77 M4.92 462.73 C100.45 352.83, 195.98 242.94, 347.38 68.77 M5.05 474.77 C133.41 327.11, 261.77 179.44, 347.51 80.81 M5.05 474.77 C79.13 389.55, 153.21 304.33, 347.51 80.81 M4.53 487.56 C114.15 361.45, 223.78 235.34, 347.64 92.85 M4.53 487.56 C110.73 365.4, 216.93 243.23, 347.64 92.85 M4.66 499.6 C136.05 348.46, 267.44 197.31, 347.12 105.65 M4.66 499.6 C86.15 405.86, 167.63 312.12, 347.12 105.65 M4.79 511.65 C104.63 396.79, 204.48 281.93, 347.25 117.69 M4.79 511.65 C82.74 421.98, 160.68 332.31, 347.25 117.69 M4.93 523.69 C90.71 425, 176.5 326.31, 347.39 129.73 M4.93 523.69 C113.38 398.92, 221.84 274.16, 347.39 129.73 M5.06 535.73 C85.67 443, 166.28 350.26, 347.52 141.77 M5.06 535.73 C115.07 409.17, 225.08 282.62, 347.52 141.77 M4.54 548.52 C132.48 401.34, 260.42 254.16, 347.65 153.81 M4.54 548.52 C107.72 429.82, 210.91 311.12, 347.65 153.81 M4.67 560.56 C82.03 471.57, 159.4 382.57, 347.13 166.61 M4.67 560.56 C115.54 433.02, 226.41 305.48, 347.13 166.61 M4.8 572.6 C134.25 423.69, 263.71 274.77, 347.26 178.65 M4.8 572.6 C119.03 441.2, 233.25 309.8, 347.26 178.65 M4.93 584.65 C113.73 459.49, 222.52 334.34, 347.4 190.69 M4.93 584.65 C112.38 461.04, 219.83 337.44, 347.4 190.69 M5.07 596.69 C81.37 508.92, 157.66 421.15, 347.53 202.73 M5.07 596.69 C126.27 457.26, 247.48 317.83, 347.53 202.73 M4.54 609.48 C88.59 512.8, 172.63 416.12, 347.66 214.77 M4.54 609.48 C78.39 524.54, 152.23 439.59, 347.66 214.77 M4.68 621.52 C105.31 505.76, 205.93 390, 347.14 227.56 M4.68 621.52 C140.28 465.53, 275.89 309.53, 347.14 227.56 M4.81 633.56 C114.96 506.85, 225.12 380.13, 347.27 239.61 M4.81 633.56 C106.66 516.4, 208.5 399.25, 347.27 239.61 M4.94 645.6 C110.23 524.49, 215.51 403.38, 347.41 251.65 M4.94 645.6 C103.95 531.71, 202.96 417.81, 347.41 251.65 M4.42 658.4 C121.57 523.63, 238.72 388.87, 347.54 263.69 M4.42 658.4 C98.73 549.91, 193.04 441.42, 347.54 263.69 M4.55 670.44 C76.45 587.74, 148.34 505.03, 347.67 275.73 M4.55 670.44 C127.42 529.1, 250.28 387.77, 347.67 275.73 M4.69 682.48 C99.75 573.13, 194.81 463.77, 347.15 288.52 M4.69 682.48 C75.75 600.73, 146.82 518.98, 347.15 288.52 M4.82 694.52 C99.27 585.87, 193.73 477.21, 347.28 300.56 M4.82 694.52 C115.4 567.31, 225.99 440.1, 347.28 300.56 M4.95 706.56 C136.16 555.63, 267.37 404.69, 347.42 312.6 M4.95 706.56 C73.64 627.55, 142.32 548.55, 347.42 312.6 M4.43 719.36 C77.04 635.84, 149.64 552.32, 347.55 324.65 M4.43 719.36 C141.32 561.88, 278.21 404.41, 347.55 324.65 M4.56 731.4 C104.33 616.64, 204.09 501.88, 347.68 336.69 M4.56 731.4 C109.04 611.22, 213.51 491.04, 347.68 336.69 M4.7 743.44 C90.98 644.18, 177.27 544.92, 347.16 349.48 M4.7 743.44 C140.62 587.08, 276.55 430.71, 347.16 349.48 M4.83 755.48 C111.96 632.24, 219.09 509, 347.29 361.52 M4.83 755.48 C78.5 670.73, 152.18 585.98, 347.29 361.52 M4.96 767.52 C94.54 664.47, 184.13 561.42, 347.43 373.56 M4.96 767.52 C81.24 679.78, 157.51 592.03, 347.43 373.56 M4.44 780.32 C121.59 645.56, 238.73 510.79, 347.56 385.6 M4.44 780.32 C132.64 632.84, 260.84 485.37, 347.56 385.6 M4.57 792.36 C85.17 699.64, 165.77 606.93, 347.69 397.65 M4.57 792.36 C134.17 643.27, 263.77 494.18, 347.69 397.65 M4.71 804.4 C123.98 667.19, 243.26 529.98, 347.17 410.44 M4.71 804.4 C95.95 699.43, 187.2 594.47, 347.17 410.44 M4.84 816.44 C140.45 660.44, 276.06 504.44, 347.3 422.48 M4.84 816.44 C93.36 714.61, 181.88 612.78, 347.3 422.48 M4.97 828.48 C102.53 716.26, 200.08 604.03, 347.44 434.52 M4.97 828.48 C116.38 700.32, 227.79 572.16, 347.44 434.52 M4.45 841.28 C106.92 723.4, 209.39 605.52, 347.57 446.56 M4.45 841.28 C92.61 739.86, 180.76 638.45, 347.57 446.56 M4.58 853.32 C135.75 702.42, 266.92 551.53, 347.7 458.6 M4.58 853.32 C82.59 763.58, 160.59 673.85, 347.7 458.6 M4.72 865.36 C116.48 736.79, 228.24 608.23, 347.18 471.4 M4.72 865.36 C93.86 762.81, 183.01 660.26, 347.18 471.4 M4.85 877.4 C90.93 778.37, 177.01 679.35, 347.31 483.44 M4.85 877.4 C140.09 721.83, 275.33 566.25, 347.31 483.44 M1.7 893.21 C137.32 737.21, 272.93 581.2, 347.45 495.48 M1.7 893.21 C123.11 753.55, 244.52 613.88, 347.45 495.48 M4.46 902.24 C135.74 751.22, 267.01 600.2, 347.58 507.52 M4.46 902.24 C105.92 785.52, 207.37 668.81, 347.58 507.52 M6.56 912.01 C88.16 818.15, 169.75 724.28, 347.71 519.56 M6.56 912.01 C111.41 791.4, 216.25 670.79, 347.71 519.56 M11.94 918.02 C94.48 823.07, 177.01 728.13, 347.19 532.36 M11.94 918.02 C126.84 785.84, 241.74 653.67, 347.19 532.36 M19.29 921.75 C130.72 793.57, 242.15 665.38, 347.32 544.4 M19.29 921.75 C118.35 807.8, 217.42 693.84, 347.32 544.4 M27.3 924.74 C152.8 780.37, 278.3 635.99, 347.46 556.44 M27.3 924.74 C153.54 779.51, 279.79 634.28, 347.46 556.44 M35.96 926.97 C159.37 785, 282.78 643.04, 347.59 568.48 M35.96 926.97 C99.42 853.97, 162.87 780.97, 347.59 568.48 M46.59 926.93 C151.87 805.83, 257.15 684.72, 347.72 580.52 M46.59 926.93 C123.12 838.9, 199.65 750.86, 347.72 580.52 M57.22 926.9 C126.83 846.83, 196.43 766.76, 347.2 593.32 M57.22 926.9 C137.27 834.82, 217.31 742.74, 347.2 593.32 M67.85 926.87 C159.59 821.33, 251.34 715.79, 347.33 605.36 M67.85 926.87 C171.57 807.55, 275.29 688.24, 347.33 605.36 M78.48 926.83 C168.15 823.68, 257.82 720.52, 347.47 617.4 M78.48 926.83 C153.35 840.71, 228.21 754.59, 347.47 617.4 M89.11 926.8 C171.03 832.56, 252.94 738.33, 347.6 629.44 M89.11 926.8 C176.87 825.84, 264.62 724.89, 347.6 629.44 M99.74 926.76 C165.85 850.71, 231.96 774.66, 347.08 642.24 M99.74 926.76 C189.99 822.94, 280.25 719.11, 347.08 642.24 M110.37 926.73 C201.35 822.06, 292.34 717.4, 347.21 654.28 M110.37 926.73 C204.84 818.05, 299.31 709.37, 347.21 654.28 M121 926.69 C180.48 858.28, 239.95 789.86, 347.34 666.32 M121 926.69 C208.26 826.32, 295.51 725.94, 347.34 666.32 M131.63 926.66 C213.29 832.72, 294.96 738.78, 347.47 678.36 M131.63 926.66 C203.76 843.69, 275.88 760.71, 347.47 678.36 M142.26 926.62 C197.8 862.73, 253.34 798.84, 347.61 690.4 M142.26 926.62 C221.36 835.63, 300.45 744.64, 347.61 690.4 M152.89 926.59 C197.06 875.78, 241.23 824.96, 347.09 703.2 M152.89 926.59 C225.81 842.7, 298.74 758.81, 347.09 703.2 M163.52 926.55 C213.25 869.34, 262.99 812.13, 347.22 715.24 M163.52 926.55 C219.42 862.25, 275.32 797.95, 347.22 715.24 M174.15 926.52 C215.58 878.86, 257.01 831.2, 347.35 727.28 M174.15 926.52 C225.85 867.05, 277.54 807.58, 347.35 727.28 M184.78 926.49 C245.57 856.56, 306.35 786.63, 347.48 739.32 M184.78 926.49 C230.09 874.36, 275.4 822.24, 347.48 739.32 M195.41 926.45 C226 891.27, 256.58 856.09, 347.62 751.36 M195.41 926.45 C244.7 869.75, 293.99 813.05, 347.62 751.36 M206.04 926.42 C251.01 874.69, 295.98 822.96, 347.09 764.15 M206.04 926.42 C253.83 871.45, 301.61 816.48, 347.09 764.15 M216.02 927.14 C252.72 884.91, 289.43 842.69, 347.23 776.2 M216.02 927.14 C244.59 894.27, 273.17 861.39, 347.23 776.2 M226.65 927.1 C272 874.93, 317.36 822.75, 347.36 788.24 M226.65 927.1 C264.24 883.86, 301.83 840.62, 347.36 788.24 M237.28 927.07 C272.81 886.19, 308.34 845.32, 347.49 800.28 M237.28 927.07 C280.45 877.4, 323.63 827.73, 347.49 800.28 M247.91 927.03 C272.19 899.1, 296.46 871.17, 347.63 812.32 M247.91 927.03 C279.62 890.55, 311.33 854.07, 347.63 812.32 M258.54 927 C290 890.8, 321.47 854.61, 347.1 825.11 M258.54 927 C276.47 906.37, 294.4 885.75, 347.1 825.11 M269.17 926.96 C296.56 895.46, 323.95 863.95, 347.24 837.15 M269.17 926.96 C290.68 902.22, 312.19 877.47, 347.24 837.15 M279.8 926.93 C299.02 904.81, 318.25 882.69, 347.37 849.2 M279.8 926.93 C296.83 907.34, 313.85 887.75, 347.37 849.2 M290.43 926.9 C310.76 903.5, 331.1 880.11, 347.5 861.24 M290.43 926.9 C313.04 900.88, 335.65 874.87, 347.5 861.24 M301.06 926.86 C319.5 905.64, 337.95 884.42, 347.64 873.28 M301.06 926.86 C314.46 911.44, 327.87 896.02, 347.64 873.28 M311.69 926.83 C320.47 916.72, 329.26 906.61, 347.11 886.07 M311.69 926.83 C321.87 915.11, 332.06 903.39, 347.11 886.07 M324.29 924.53 C329.98 917.98, 335.67 911.43, 346.59 898.87 M324.29 924.53 C331.03 916.76, 337.78 909, 346.59 898.87" stroke="#ffffff" stroke-width="1" fill="none"></path><path d="M32 0 M32 0 C101.04 0, 170.07 0, 315.2 0 M32 0 C103.47 0, 174.93 0, 315.2 0 M315.2 0 C336.53 0, 347.2 10.67, 347.2 32 M315.2 0 C336.53 0, 347.2 10.67, 347.2 32 M347.2 32 C347.2 348.82, 347.2 665.65, 347.2 891.2 M347.2 32 C347.2 242.11, 347.2 452.23, 347.2 891.2 M347.2 891.2 C347.2 912.53, 336.53 923.2, 315.2 923.2 M347.2 891.2 C347.2 912.53, 336.53 923.2, 315.2 923.2 M315.2 923.2 C203.6 923.2, 92.01 923.2, 32 923.2 M315.2 923.2 C235.4 923.2, 155.59 923.2, 32 923.2 M32 923.2 C10.67 923.2, 0 912.53, 0 891.2 M32 923.2 C10.67 923.2, 0 912.53, 0 891.2 M0 891.2 C0 650.09, 0 408.99, 0 32 M0 891.2 C0 573.26, 0 255.32, 0 32 M0 32 C0 10.67, 10.67 0, 32 0 M0 32 C0 10.67, 10.67 0, 32 0" stroke="#000000" stroke-width="2" fill="none"></path></g><g transform="translate(-121.64892999140721 492.6017405571238) rotate(269.50345470615247 156 23)"><text x="0" y="32" font-family="Virgil, Segoe UI Emoji" font-size="36px" fill="#000000" text-anchor="start" style="white-space: pre;" direction="ltr">RAM Free Memory</text></g><g stroke-linecap="round" transform="translate(117.75850544263034 142.80001831054688) rotate(0 146.39996337890625 138.3999786376953)"><path d="M7.86 8.16 C7.86 8.16, 7.86 8.16, 7.86 8.16 M7.86 8.16 C7.86 8.16, 7.86 8.16, 7.86 8.16 M2.75 26.24 C10.14 17.73, 17.54 9.22, 25.05 0.58 M2.75 26.24 C11.01 16.73, 19.28 7.22, 25.05 0.58 M2.88 38.28 C14.7 24.68, 26.52 11.09, 34.37 2.05 M2.88 38.28 C10.02 30.07, 17.16 21.85, 34.37 2.05 M2.36 51.07 C12.53 39.38, 22.69 27.68, 45 2.02 M2.36 51.07 C18.96 31.97, 35.57 12.86, 45 2.02 M2.49 63.11 C13.81 50.09, 25.13 37.07, 55.63 1.98 M2.49 63.11 C19.35 43.72, 36.21 24.32, 55.63 1.98 M2.62 75.16 C21.34 53.63, 40.05 32.1, 66.26 1.95 M2.62 75.16 C21.42 53.53, 40.23 31.9, 66.26 1.95 M2.76 87.2 C20.91 66.31, 39.06 45.43, 76.89 1.91 M2.76 87.2 C26.51 59.87, 50.27 32.54, 76.89 1.91 M2.23 99.99 C33.19 64.38, 64.14 28.78, 87.52 1.88 M2.23 99.99 C26.5 72.08, 50.76 44.17, 87.52 1.88 M2.37 112.03 C35.46 73.97, 68.54 35.9, 98.15 1.85 M2.37 112.03 C27.23 83.43, 52.09 54.83, 98.15 1.85 M2.5 124.07 C29.6 92.9, 56.69 61.73, 108.78 1.81 M2.5 124.07 C32.49 89.57, 62.49 55.07, 108.78 1.81 M2.63 136.11 C47.58 84.41, 92.52 32.71, 119.41 1.78 M2.63 136.11 C30.38 104.2, 58.12 72.28, 119.41 1.78 M2.11 148.91 C30.93 115.75, 59.76 82.59, 130.04 1.74 M2.11 148.91 C33.32 113, 64.54 77.09, 130.04 1.74 M2.24 160.95 C47.72 108.64, 93.19 56.33, 140.67 1.71 M2.24 160.95 C48.92 107.25, 95.6 53.55, 140.67 1.71 M2.38 172.99 C43.08 126.17, 83.79 79.34, 150.65 2.43 M2.38 172.99 C40.16 129.52, 77.95 86.05, 150.65 2.43 M2.51 185.03 C56.01 123.49, 109.51 61.94, 161.28 2.39 M2.51 185.03 C53.44 126.44, 104.38 67.84, 161.28 2.39 M1.99 197.83 C44.2 149.26, 86.42 100.7, 171.91 2.36 M1.99 197.83 C40.99 152.96, 79.99 108.09, 171.91 2.36 M2.12 209.87 C50.17 154.6, 98.21 99.33, 182.54 2.32 M2.12 209.87 C61.74 141.28, 121.37 72.69, 182.54 2.32 M2.25 221.91 C66.82 147.63, 131.39 73.36, 193.17 2.29 M2.25 221.91 C42.81 175.25, 83.37 128.6, 193.17 2.29 M2.39 233.95 C76.46 148.74, 150.53 63.53, 203.8 2.26 M2.39 233.95 C80.52 144.07, 158.66 54.18, 203.8 2.26 M1.86 246.75 C82.68 153.77, 163.5 60.8, 214.43 2.22 M1.86 246.75 C60.88 178.85, 119.9 110.96, 214.43 2.22 M4.62 255.77 C90.14 157.39, 175.66 59.01, 225.06 2.19 M4.62 255.77 C69.57 181.05, 134.53 106.33, 225.06 2.19 M6.07 266.3 C87.87 172.19, 169.68 78.08, 235.69 2.15 M6.07 266.3 C58.64 205.82, 111.21 145.35, 235.69 2.15 M11.45 272.3 C74.59 199.67, 137.73 127.03, 246.32 2.12 M11.45 272.3 C89.36 182.67, 167.28 93.04, 246.32 2.12 M18.8 276.04 C88.68 195.65, 158.56 115.26, 256.95 2.08 M18.8 276.04 C90.2 193.9, 161.6 111.76, 256.95 2.08 M27.46 278.27 C87.23 209.51, 147.01 140.75, 268.89 0.54 M27.46 278.27 C114.38 178.29, 201.29 78.3, 268.89 0.54 M36.12 280.5 C123.79 179.65, 211.46 78.8, 276.89 3.52 M36.12 280.5 C97.14 210.31, 158.16 140.11, 276.89 3.52 M46.75 280.47 C131.25 183.26, 215.75 86.06, 283.59 8.02 M46.75 280.47 C122.53 193.29, 198.31 106.12, 283.59 8.02 M57.38 280.43 C147.02 177.31, 236.66 74.19, 289.63 13.27 M57.38 280.43 C123.01 204.93, 188.65 129.43, 289.63 13.27 M68.01 280.4 C141.19 196.21, 214.38 112.02, 293.7 20.78 M68.01 280.4 C142.89 194.25, 217.78 108.11, 293.7 20.78 M78.64 280.36 C147.94 200.64, 217.25 120.91, 293.83 32.82 M78.64 280.36 C145.33 203.65, 212.01 126.94, 293.83 32.82 M89.27 280.33 C145.2 215.99, 201.12 151.66, 293.96 44.86 M89.27 280.33 C170.21 187.22, 251.14 94.12, 293.96 44.86 M99.9 280.29 C173.83 195.25, 247.75 110.21, 294.09 56.9 M99.9 280.29 C155.73 216.07, 211.57 151.84, 294.09 56.9 M110.53 280.26 C151.19 233.49, 191.84 186.72, 293.57 69.7 M110.53 280.26 C163.67 219.13, 216.82 157.99, 293.57 69.7 M121.16 280.23 C175.6 217.61, 230.03 154.98, 293.7 81.74 M121.16 280.23 C172.47 221.2, 223.78 162.18, 293.7 81.74 M131.79 280.19 C194.14 208.47, 256.48 136.75, 293.84 93.78 M131.79 280.19 C176.49 228.77, 221.19 177.35, 293.84 93.78 M142.42 280.16 C191.74 223.42, 241.05 166.69, 293.97 105.82 M142.42 280.16 C180.47 236.39, 218.52 192.62, 293.97 105.82 M153.05 280.12 C191.17 236.28, 229.28 192.43, 294.1 117.86 M153.05 280.12 C208.18 216.7, 263.31 153.28, 294.1 117.86 M163.68 280.09 C209.76 227.08, 255.84 174.07, 293.58 130.66 M163.68 280.09 C214.33 221.83, 264.97 163.57, 293.58 130.66 M173.66 280.81 C219.63 227.92, 265.61 175.02, 293.71 142.7 M173.66 280.81 C216.16 231.91, 258.66 183.02, 293.71 142.7 M184.29 280.77 C227.35 231.24, 270.4 181.71, 293.85 154.74 M184.29 280.77 C226.44 232.28, 268.6 183.78, 293.85 154.74 M194.92 280.74 C226.88 243.96, 258.85 207.19, 293.98 166.78 M194.92 280.74 C221.03 250.69, 247.15 220.65, 293.98 166.78 M205.55 280.7 C238.77 242.48, 272 204.26, 294.11 178.82 M205.55 280.7 C226.49 256.61, 247.43 232.52, 294.11 178.82 M216.18 280.67 C238.2 255.34, 260.22 230, 293.59 191.61 M216.18 280.67 C239.23 254.15, 262.27 227.64, 293.59 191.61 M226.81 280.64 C245.63 258.98, 264.46 237.32, 293.72 203.66 M226.81 280.64 C251.91 251.75, 277.02 222.87, 293.72 203.66 M237.44 280.6 C257.67 257.32, 277.91 234.05, 293.86 215.7 M237.44 280.6 C249.51 266.71, 261.58 252.82, 293.86 215.7 M248.07 280.57 C258.95 268.04, 269.84 255.52, 293.99 227.74 M248.07 280.57 C264.65 261.49, 281.23 242.41, 293.99 227.74 M261.32 277.51 C268.74 268.98, 276.16 260.44, 293.47 240.53 M261.32 277.51 C269.35 268.28, 277.38 259.04, 293.47 240.53 M270.64 278.99 C275.39 273.52, 280.15 268.04, 292.94 253.33 M270.64 278.99 C279.2 269.14, 287.76 259.29, 292.94 253.33" stroke="#ffffff" stroke-width="1" fill="none"></path><path d="M32 0 M32 0 C96.55 0, 161.11 0, 260.8 0 M32 0 C82.82 0, 133.65 0, 260.8 0 M260.8 0 C282.13 0, 292.8 10.67, 292.8 32 M260.8 0 C282.13 0, 292.8 10.67, 292.8 32 M292.8 32 C292.8 86, 292.8 140.01, 292.8 244.8 M292.8 32 C292.8 77.93, 292.8 123.85, 292.8 244.8 M292.8 244.8 C292.8 266.13, 282.13 276.8, 260.8 276.8 M292.8 244.8 C292.8 266.13, 282.13 276.8, 260.8 276.8 M260.8 276.8 C176.32 276.8, 91.85 276.8, 32 276.8 M260.8 276.8 C191.16 276.8, 121.51 276.8, 32 276.8 M32 276.8 C10.67 276.8, 0 266.13, 0 244.8 M32 276.8 C10.67 276.8, 0 266.13, 0 244.8 M0 244.8 C0 183.2, 0 121.61, 0 32 M0 244.8 C0 171.03, 0 97.26, 0 32 M0 32 C0 10.67, 10.67 0, 32 0 M0 32 C0 10.67, 10.67 0, 32 0" stroke="#364fc7" stroke-width="2" fill="none"></path></g><g stroke-linecap="round" transform="translate(117.75850544263034 136.39993286132812) rotate(0 145.5999755859375 94.40000915527344)"><path d="M32 0 L259.2 0 L266.7 0.5 L273.2 2 L278.7 4.5 L283.2 8 L286.7 12.5 L289.2 18 L290.7 24.5 L291.2 32 L291.2 156.8 L290.7 164.3 L289.2 170.8 L286.7 176.3 L283.2 180.8 L278.7 184.3 L273.2 186.8 L266.7 188.3 L259.2 188.8 L32 188.8 L24.5 188.3 L18 186.8 L12.5 184.3 L8 180.8 L4.5 176.3 L2 170.8 L0.5 164.3 L0 156.8 L0.5 24.5 L2 18 L4.5 12.5 L8 8 L12.5 4.5 L18 2 L24.5 0.5 L32 0" stroke="none" stroke-width="0" fill="#4c6ef5"></path><path d="M32 0 M32 0 C78.18 0, 124.35 0, 259.2 0 M32 0 C121.31 0, 210.62 0, 259.2 0 M259.2 0 C280.53 0, 291.2 10.67, 291.2 32 M259.2 0 C280.53 0, 291.2 10.67, 291.2 32 M291.2 32 C291.2 67.4, 291.2 102.81, 291.2 156.8 M291.2 32 C291.2 77.03, 291.2 122.05, 291.2 156.8 M291.2 156.8 C291.2 178.13, 280.53 188.8, 259.2 188.8 M291.2 156.8 C291.2 178.13, 280.53 188.8, 259.2 188.8 M259.2 188.8 C200.77 188.8, 142.35 188.8, 32 188.8 M259.2 188.8 C202.04 188.8, 144.88 188.8, 32 188.8 M32 188.8 C10.67 188.8, 0 178.13, 0 156.8 M32 188.8 C10.67 188.8, 0 178.13, 0 156.8 M0 156.8 C0 112.86, 0 68.93, 0 32 M0 156.8 C0 113.21, 0 69.62, 0 32 M0 32 C0 10.67, 10.67 0, 32 0 M0 32 C0 10.67, 10.67 0, 32 0" stroke="#ffffff" stroke-width="2" fill="none"></path></g><g transform="translate(193.09761146335046 186) rotate(0 79.13043478260869 35)"><text x="0" y="49" font-family="Virgil, Segoe UI Emoji" font-size="54.78260869565218px" fill="#ffffff" text-anchor="start" style="white-space: pre;" direction="ltr">Stack</text></g><g stroke-linecap="round"><g transform="translate(269.7585053221747 326.199951171875) rotate(0 -0.00006097492843082364 32.300018310546875)"><path d="M0 0 C0 10.77, 0 53.83, 0 64.6 M0 0 C0 10.77, 0 53.83, 0 64.6" stroke="#364fc7" stroke-width="4" fill="none"></path></g><g transform="translate(269.7585053221747 326.199951171875) rotate(0 -0.00006097492843082364 32.300018310546875)"><path d="M-10.26 36.41 C-6.91 45.62, -3.55 54.84, 0 64.6 M-10.26 36.41 C-8.18 42.12, -6.1 47.84, 0 64.6" stroke="#364fc7" stroke-width="4" fill="none"></path></g><g transform="translate(269.7585053221747 326.199951171875) rotate(0 -0.00006097492843082364 32.300018310546875)"><path d="M10.26 36.41 C6.91 45.62, 3.55 54.84, 0 64.6 M10.26 36.41 C8.18 42.12, 6.1 47.84, 0 64.6" stroke="#364fc7" stroke-width="4" fill="none"></path></g></g><mask></mask><g stroke-linecap="round" transform="translate(116.55843220044284 801.9999542236328) rotate(0 145.5999755859375 94.40000915527344)"><path d="M32 0 L259.2 0 L266.7 0.5 L273.2 2 L278.7 4.5 L283.2 8 L286.7 12.5 L289.2 18 L290.7 24.5 L291.2 32 L291.2 156.8 L290.7 164.3 L289.2 170.8 L286.7 176.3 L283.2 180.8 L278.7 184.3 L273.2 186.8 L266.7 188.3 L259.2 188.8 L32 188.8 L24.5 188.3 L18 186.8 L12.5 184.3 L8 180.8 L4.5 176.3 L2 170.8 L0.5 164.3 L0 156.8 L0.5 24.5 L2 18 L4.5 12.5 L8 8 L12.5 4.5 L18 2 L24.5 0.5 L32 0" stroke="none" stroke-width="0" fill="#ced4da"></path><path d="M32 0 M32 0 C116.72 0, 201.44 0, 259.2 0 M32 0 C100.33 0, 168.65 0, 259.2 0 M259.2 0 C280.53 0, 291.2 10.67, 291.2 32 M259.2 0 C280.53 0, 291.2 10.67, 291.2 32 M291.2 32 C291.2 71.93, 291.2 111.86, 291.2 156.8 M291.2 32 C291.2 80.17, 291.2 128.34, 291.2 156.8 M291.2 156.8 C291.2 178.13, 280.53 188.8, 259.2 188.8 M291.2 156.8 C291.2 178.13, 280.53 188.8, 259.2 188.8 M259.2 188.8 C210.54 188.8, 161.87 188.8, 32 188.8 M259.2 188.8 C194.49 188.8, 129.78 188.8, 32 188.8 M32 188.8 C10.67 188.8, 0 178.13, 0 156.8 M32 188.8 C10.67 188.8, 0 178.13, 0 156.8 M0 156.8 C0 130.2, 0 103.6, 0 32 M0 156.8 C0 118.16, 0 79.52, 0 32 M0 32 C0 10.67, 10.67 0, 32 0 M0 32 C0 10.67, 10.67 0, 32 0" stroke="#ffffff" stroke-width="2" fill="none"></path></g><g transform="translate(176.62807066002165 866.9999389648438) rotate(0 86.5 35)"><text x="0" y="49" font-family="Virgil, Segoe UI Emoji" font-size="54.78260869565218px" fill="#343a40" text-anchor="start" style="white-space: pre;" direction="ltr">Static</text></g><g stroke-linecap="round" transform="translate(114.15840778638034 525.1997833251953) rotate(0 145.5999755859375 125.60008239746094)"><path d="M32 0 L259.2 0 L266.7 0.5 L273.2 2 L278.7 4.5 L283.2 8 L286.7 12.5 L289.2 18 L290.7 24.5 L291.2 32 L291.2 219.2 L290.7 226.7 L289.2 233.2 L286.7 238.7 L283.2 243.2 L278.7 246.7 L273.2 249.2 L266.7 250.7 L259.2 251.2 L32 251.2 L24.5 250.7 L18 249.2 L12.5 246.7 L8 243.2 L4.5 238.7 L2 233.2 L0.5 226.7 L0 219.2 L0.5 24.5 L2 18 L4.5 12.5 L8 8 L12.5 4.5 L18 2 L24.5 0.5 L32 0" stroke="none" stroke-width="0" fill="#e64980"></path><path d="M32 0 M32 0 C86.9 0, 141.8 0, 259.2 0 M32 0 C80.1 0, 128.2 0, 259.2 0 M259.2 0 C280.53 0, 291.2 10.67, 291.2 32 M259.2 0 C280.53 0, 291.2 10.67, 291.2 32 M291.2 32 C291.2 93.02, 291.2 154.04, 291.2 219.2 M291.2 32 C291.2 82.68, 291.2 133.36, 291.2 219.2 M291.2 219.2 C291.2 240.53, 280.53 251.2, 259.2 251.2 M291.2 219.2 C291.2 240.53, 280.53 251.2, 259.2 251.2 M259.2 251.2 C182.74 251.2, 106.28 251.2, 32 251.2 M259.2 251.2 C200.1 251.2, 141 251.2, 32 251.2 M32 251.2 C10.67 251.2, 0 240.53, 0 219.2 M32 251.2 C10.67 251.2, 0 240.53, 0 219.2 M0 219.2 C0 152.8, 0 86.4, 0 32 M0 219.2 C0 164.27, 0 109.35, 0 32 M0 32 C0 10.67, 10.67 0, 32 0 M0 32 C0 10.67, 10.67 0, 32 0" stroke="#ffffff" stroke-width="2" fill="none"></path></g><g transform="translate(194.45857868481784 612.9999389648438) rotate(0 63 35)"><text x="0" y="49" font-family="Virgil, Segoe UI Emoji" font-size="54.78260869565218px" fill="#ffffff" text-anchor="start" style="white-space: pre;" direction="ltr">Heap</text></g><g stroke-linecap="round"><g transform="translate(268.15840778638034 517.1997680664062) rotate(0 0 -34.399993896484375)"><path d="M0 0 C0 -11.47, 0 -57.33, 0 -68.8 M0 0 C0 -11.47, 0 -57.33, 0 -68.8" stroke="#a61e4d" stroke-width="4" fill="none"></path></g><g transform="translate(268.15840778638034 517.1997680664062) rotate(0 0 -34.399993896484375)"><path d="M10.26 -40.61 C6.62 -50.61, 2.98 -60.61, 0 -68.8 M10.26 -40.61 C6.74 -50.28, 3.22 -59.94, 0 -68.8" stroke="#a61e4d" stroke-width="4" fill="none"></path></g><g transform="translate(268.15840778638034 517.1997680664062) rotate(0 0 -34.399993896484375)"><path d="M-10.26 -40.61 C-6.62 -50.61, -2.98 -60.61, 0 -68.8 M-10.26 -40.61 C-6.74 -50.28, -3.22 -59.94, 0 -68.8" stroke="#a61e4d" stroke-width="4" fill="none"></path></g></g><mask></mask><g transform="translate(594.5585542707554 10) rotate(0 69.5 23)"><text x="0" y="32" font-family="Virgil, Segoe UI Emoji" font-size="36px" fill="#364fc7" text-anchor="start" style="white-space: pre;" direction="ltr">Content</text></g><g transform="translate(1039.8583589582554 10) rotate(0 36 23)"><text x="0" y="32" font-family="Virgil, Segoe UI Emoji" font-size="36px" fill="#364fc7" text-anchor="start" style="white-space: pre;" direction="ltr">Size</text></g><g transform="translate(1438.558432200443 10) rotate(0 69.5 23)"><text x="0" y="32" font-family="Virgil, Segoe UI Emoji" font-size="36px" fill="#364fc7" text-anchor="start" style="white-space: pre;" direction="ltr">Lifetime</text></g><g transform="translate(1996.258383372318 10) rotate(0 66.5 23)"><text x="0" y="32" font-family="Virgil, Segoe UI Emoji" font-size="36px" fill="#364fc7" text-anchor="start" style="white-space: pre;" direction="ltr">Cleanup</text></g><g transform="translate(1357.558432200443 856.4000244140625) rotate(0 134.5 45.5)"><text x="0" y="32.5" font-family="Virgil, Segoe UI Emoji" font-size="36px" fill="#343a40" text-anchor="start" style="white-space: pre;" direction="ltr">Entire duration</text><text x="0" y="78" font-family="Virgil, Segoe UI Emoji" font-size="36px" fill="#343a40" text-anchor="start" style="white-space: pre;" direction="ltr">of program</text></g><g transform="translate(932.0586763410679 863.2999267578125) rotate(0 103 68.5)"><text x="0" y="31.666666666666664" font-family="Virgil, Segoe UI Emoji" font-size="36px" fill="#343a40" text-anchor="start" style="white-space: pre;" direction="ltr">Fixed</text><text x="0" y="77.33333333333333" font-family="Virgil, Segoe UI Emoji" font-size="36px" fill="#343a40" text-anchor="start" style="white-space: pre;" direction="ltr">Kwonn at</text><text x="0" y="123" font-family="Virgil, Segoe UI Emoji" font-size="36px" fill="#343a40" text-anchor="start" style="white-space: pre;" direction="ltr">compile time</text></g><g transform="translate(1893.4587007551304 854.0997314453125) rotate(0 114.5 68.5)"><text x="0" y="31.666666666666664" font-family="Virgil, Segoe UI Emoji" font-size="36px" fill="#343a40" text-anchor="start" style="white-space: pre;" direction="ltr">Automatic</text><text x="0" y="77.33333333333333" font-family="Virgil, Segoe UI Emoji" font-size="36px" fill="#343a40" text-anchor="start" style="white-space: pre;" direction="ltr">when program</text><text x="0" y="123" font-family="Virgil, Segoe UI Emoji" font-size="36px" fill="#343a40" text-anchor="start" style="white-space: pre;" direction="ltr">terminates</text></g><g transform="translate(512.5584322004429 853.5) rotate(0 133 68.5)"><text x="0" y="31.666666666666664" font-family="Virgil, Segoe UI Emoji" font-size="36px" fill="#343a40" text-anchor="start" style="white-space: pre;" direction="ltr">Binary program</text><text x="0" y="77.33333333333333" font-family="Virgil, Segoe UI Emoji" font-size="36px" fill="#343a40" text-anchor="start" style="white-space: pre;" direction="ltr">Global variable</text><text x="0" y="123" font-family="Virgil, Segoe UI Emoji" font-size="36px" fill="#343a40" text-anchor="start" style="white-space: pre;" direction="ltr">String literals</text></g><g transform="translate(932.0586763410679 133.50009155273438) rotate(0 170 91)"><text x="0" y="32.5" font-family="Virgil, Segoe UI Emoji" font-size="36px" fill="#343a40" text-anchor="start" style="white-space: pre;" direction="ltr">Dynamic</text><text x="0" y="78" font-family="Virgil, Segoe UI Emoji" font-size="36px" fill="#343a40" text-anchor="start" style="white-space: pre;" direction="ltr">Fixed upper limit</text><text x="0" y="123.5" font-family="Virgil, Segoe UI Emoji" font-size="36px" fill="#343a40" text-anchor="start" style="white-space: pre;" direction="ltr">Grows when calling </text><text x="0" y="169" font-family="Virgil, Segoe UI Emoji" font-size="36px" fill="#343a40" text-anchor="start" style="white-space: pre;" direction="ltr">nested functions</text></g><g transform="translate(512.5584322004429 129.79998779296875) rotate(0 178.5 114)"><text x="0" y="31.6" font-family="Virgil, Segoe UI Emoji" font-size="36px" fill="#343a40" text-anchor="start" style="white-space: pre;" direction="ltr">Functions arguments</text><text x="0" y="77.2" font-family="Virgil, Segoe UI Emoji" font-size="36px" fill="#343a40" text-anchor="start" style="white-space: pre;" direction="ltr">Local variables</text><text x="0" y="122.80000000000001" font-family="Virgil, Segoe UI Emoji" font-size="36px" fill="#343a40" text-anchor="start" style="white-space: pre;" direction="ltr">Kwown at compile</text><text x="0" y="168.4" font-family="Virgil, Segoe UI Emoji" font-size="36px" fill="#343a40" text-anchor="start" style="white-space: pre;" direction="ltr">time</text><text x="0" y="214" font-family="Virgil, Segoe UI Emoji" font-size="36px" fill="#343a40" text-anchor="start" style="white-space: pre;" direction="ltr"></text></g><g transform="translate(1357.558432200443 135.099853515625) rotate(0 153.5 68.5)"><text x="0" y="31.666666666666664" font-family="Virgil, Segoe UI Emoji" font-size="36px" fill="#343a40" text-anchor="start" style="white-space: pre;" direction="ltr">Automatic</text><text x="0" y="77.33333333333333" font-family="Virgil, Segoe UI Emoji" font-size="36px" fill="#343a40" text-anchor="start" style="white-space: pre;" direction="ltr">Lifetime function</text><text x="0" y="123" font-family="Virgil, Segoe UI Emoji" font-size="36px" fill="#343a40" text-anchor="start" style="white-space: pre;" direction="ltr">Stacks are LIFO</text></g><g transform="translate(1893.4587007551304 150.09991455078125) rotate(0 190 45.5)"><text x="0" y="32.5" font-family="Virgil, Segoe UI Emoji" font-size="36px" fill="#343a40" text-anchor="start" style="white-space: pre;" direction="ltr">Automatic</text><text x="0" y="78" font-family="Virgil, Segoe UI Emoji" font-size="36px" fill="#343a40" text-anchor="start" style="white-space: pre;" direction="ltr">when function returns</text></g><g transform="translate(932.0586763410679 577.7000732421875) rotate(0 68.5 23)"><text x="0" y="32" font-family="Virgil, Segoe UI Emoji" font-size="36px" fill="#343a40" text-anchor="start" style="white-space: pre;" direction="ltr">Dynamic</text></g><g transform="translate(1357.558432200443 527.7998657226562) rotate(0 230 91)"><text x="0" y="32.5" font-family="Virgil, Segoe UI Emoji" font-size="36px" fill="#343a40" text-anchor="start" style="white-space: pre;" direction="ltr">Determinated by</text><text x="0" y="78" font-family="Virgil, Segoe UI Emoji" font-size="36px" fill="#343a40" text-anchor="start" style="white-space: pre;" direction="ltr">programmer</text><text x="0" y="123.5" font-family="Virgil, Segoe UI Emoji" font-size="36px" fill="#343a40" text-anchor="start" style="white-space: pre;" direction="ltr">Allocate / Deallocate</text><text x="0" y="169" font-family="Virgil, Segoe UI Emoji" font-size="36px" fill="#343a40" text-anchor="start" style="white-space: pre;" direction="ltr">Slower than stack memroy</text></g><g transform="translate(1893.4587007551304 602.89990234375) rotate(0 62 23)"><text x="0" y="32" font-family="Virgil, Segoe UI Emoji" font-size="36px" fill="#343a40" text-anchor="start" style="white-space: pre;" direction="ltr">Manual</text></g><g transform="translate(512.5584322004429 430.0999755859375) rotate(0 162 182.5)"><text x="0" y="31.625" font-family="Virgil, Segoe UI Emoji" font-size="36px" fill="#343a40" text-anchor="start" style="white-space: pre;" direction="ltr">Values that live</text><text x="0" y="77.25" font-family="Virgil, Segoe UI Emoji" font-size="36px" fill="#343a40" text-anchor="start" style="white-space: pre;" direction="ltr">beyond a functin's</text><text x="0" y="122.875" font-family="Virgil, Segoe UI Emoji" font-size="36px" fill="#343a40" text-anchor="start" style="white-space: pre;" direction="ltr">lifetime</text><text x="0" y="168.5" font-family="Virgil, Segoe UI Emoji" font-size="36px" fill="#343a40" text-anchor="start" style="white-space: pre;" direction="ltr">Value accessed by</text><text x="0" y="214.125" font-family="Virgil, Segoe UI Emoji" font-size="36px" fill="#343a40" text-anchor="start" style="white-space: pre;" direction="ltr">multiple threads</text><text x="0" y="259.75" font-family="Virgil, Segoe UI Emoji" font-size="36px" fill="#343a40" text-anchor="start" style="white-space: pre;" direction="ltr">Large values</text><text x="0" y="305.375" font-family="Virgil, Segoe UI Emoji" font-size="36px" fill="#343a40" text-anchor="start" style="white-space: pre;" direction="ltr">Unknown size at</text><text x="0" y="351" font-family="Virgil, Segoe UI Emoji" font-size="36px" fill="#343a40" text-anchor="start" style="white-space: pre;" direction="ltr">compile time</text></g></svg>